# File created by Blade
# Date/Time:  Thu Sep 25 19:36:54 2014
# Frame Rate: 120.000 fps
#------------------------------------------------------
:FULLY-SPECIFIED
:DEGREES
1054
root -4.189836 32.921000 1.585663 4.932160 1.067304 0.613284
Spine -6.298660 5.066305 6.397322
Head -23.923849 3.099087 3.568380
LeftShoulder -16.518176 23.366590 11.016768
LeftArm 26.658912 3.780618 -46.154314
LeftForeArm 9.503074 -0.000000 12.990017
LeftHand -21.913615 -0.000000 -28.747838
LeftHandThumb1 -26.253704 0.000000 33.147579
RightShoulder -22.106651 12.628936 -31.026594
RightArm -4.429344 -11.555591 48.209933
RightForeArm -28.782531 -0.000000 12.822740
RightHand -8.171336 -0.000000 16.324352
RightHandThumb1 -24.326973 -0.000000 -32.862282
LeftUpLeg -4.287897 3.115933 1.107672
LeftLeg 6.276291 -0.000000 -0.000000
LeftFoot -11.424432 2.534957 -19.242290
LeftToeBase 8.428228 -0.000000 -0.000000
RightUpLeg -2.176420 -6.151378 -0.940563
RightLeg 6.198875 -0.000000 -0.000000
RightFoot -11.922581 -6.719109 5.657429
RightToeBase 1.338297 -0.000000 -0.000000
1055
root -4.118054 32.938940 1.563300 5.119062 0.994328 0.523048
Spine -6.559163 4.889977 6.445580
Head -23.912231 3.081762 3.563921
LeftShoulder -16.731919 23.256832 11.687618
LeftArm 26.105293 1.743693 -44.588739
LeftForeArm 9.664636 -0.000000 12.808369
LeftHand -22.305758 -0.000000 -28.221118
LeftHandThumb1 -26.253704 0.000000 33.147579
RightShoulder -22.166863 12.879248 -31.855744
RightArm -3.871009 -11.147052 45.804061
RightForeArm -28.888145 0.000000 12.819951
RightHand -8.498390 0.000000 16.227986
RightHandThumb1 -24.326973 -0.000000 -32.862282
LeftUpLeg -4.360430 3.366546 1.079587
LeftLeg 5.957262 -0.000000 -0.000000
LeftFoot -11.047274 2.280003 -19.745981
LeftToeBase 8.347059 -0.000000 -0.000000
RightUpLeg -2.883020 -6.047750 -0.877455
RightLeg 7.140431 -0.000000 -0.000000
RightFoot -12.069515 -7.171390 5.634188
RightToeBase 1.045279 -0.000000 -0.000000
1056
root -4.047006 32.960379 1.547319 5.267509 0.783629 0.471383
Spine -6.761606 4.866993 6.411170
Head -23.957303 3.049050 3.532422
LeftShoulder -16.938487 23.221916 12.374509
LeftArm 25.597149 -0.302912 -43.005225
LeftForeArm 9.817814 -0.000000 12.615764
LeftHand -22.547277 -0.000000 -27.564553
LeftHandThumb1 -26.253704 0.000000 33.147579
RightShoulder -22.281077 13.129064 -32.730426
RightArm -3.339641 -10.678712 43.550348
RightForeArm -29.173491 -0.000000 12.797419
RightHand -8.730291 0.000000 16.219258
RightHandThumb1 -24.326973 -0.000000 -32.862282
LeftUpLeg -4.251029 3.418912 1.021559
LeftLeg 5.390136 -0.000000 -0.000000
LeftFoot -10.742438 2.390693 -20.285161
LeftToeBase 8.751933 -0.000000 -0.000000
RightUpLeg -3.620460 -5.797366 -0.857567
RightLeg 8.228213 -0.000000 -0.000000
RightFoot -12.276301 -7.665816 5.611245
RightToeBase 0.866735 -0.000000 -0.000000
1057
root -3.986957 32.985312 1.530131 5.412347 0.602342 0.414428
Spine -6.964561 4.823412 6.306550
Head -23.949714 3.021896 3.654763
LeftShoulder -17.034546 22.998689 13.251056
LeftArm 24.856521 -2.207959 -41.504169
LeftForeArm 10.067835 0.000000 12.486278
LeftHand -22.615596 -0.000000 -26.533298
LeftHandThumb1 -26.253704 0.000000 33.147579
RightShoulder -22.365254 13.213037 -33.482303
RightArm -2.786979 -10.248729 41.389714
RightForeArm -29.593591 0.000000 12.826071
RightHand -8.753299 -0.000000 15.971154
RightHandThumb1 -24.326973 -0.000000 -32.862282
LeftUpLeg -4.188226 3.553929 0.990914
LeftLeg 4.921598 -0.000000 -0.000000
LeftFoot -10.409702 2.355399 -20.844855
LeftToeBase 9.005976 -0.000000 -0.000000
RightUpLeg -4.366151 -5.502502 -0.791494
RightLeg 9.324185 -0.000000 -0.000000
RightFoot -12.496821 -8.237537 5.677765
RightToeBase 0.471289 -0.000000 -0.000000
